<svg width="141" height="40" viewBox="0 0 141 40" fill="none" xmlns="http://www.w3.org/2000/svg">
<path fill-rule="evenodd" clip-rule="evenodd" d="M8.55273 3.59787C7.12207 4.59823 5.82837 5.78098 4.70532 7.1124C9.29462 6.68633 15.1252 7.38205 21.8944 10.7667C29.123 14.3809 34.9438 14.5031 38.9948 13.7217C38.6272 12.6088 38.1644 11.5392 37.6163 10.5224C32.979 11.0115 27.034 10.3641 20.1056 6.89998C15.706 4.70018 11.8278 3.79401 8.55273 3.59787ZM34.9074 6.66665C31.2453 2.575 25.9234 0 20 0C18.2605 0 16.5727 0.222107 14.9637 0.63948C17.1429 1.23409 19.4579 2.10399 21.8944 3.32227C26.967 5.85853 31.3464 6.67516 34.9074 6.66665ZM39.8609 17.6281C34.9669 18.5945 28.2088 18.396 20.1056 14.3444C12.53 10.5566 6.50043 10.6043 2.4339 11.508C2.224 11.5546 2.01904 11.6036 1.81903 11.6546C1.28662 12.8125 0.861634 14.0301 0.556702 15.2945C0.882386 15.2075 1.21893 15.1248 1.56616 15.0476C6.49957 13.9513 13.4701 13.9989 21.8944 18.2111C29.4701 21.9989 35.4996 21.9512 39.5662 21.0475C39.7055 21.0166 39.8428 20.9846 39.9778 20.9516C39.9926 20.6363 40 20.319 40 20C40 19.1975 39.9528 18.406 39.8609 17.6281ZM39.3248 25.1723C34.4783 26.0196 27.917 25.6944 20.1056 21.7888C12.53 18.001 6.50043 18.0487 2.4339 18.9524C1.53125 19.1529 0.719239 19.3972 0.00293 19.6551C0.000977 19.7698 0 19.8848 0 20C0 31.0457 8.95429 40 20 40C29.2571 40 37.0453 33.7109 39.3248 25.1723Z" fill="#7F57F1"/>
<path d="M56.2812 27.9062C56.4479 27.9583 56.6146 27.9948 56.7812 28.0156C56.9479 28.026 57.1146 28.0312 57.2812 28.0312C57.6979 28.0312 58.099 27.974 58.4844 27.8594C58.8698 27.7448 59.2292 27.5833 59.5625 27.375C59.9062 27.1562 60.2083 26.8958 60.4688 26.5938C60.7396 26.2812 60.9583 25.9375 61.125 25.5625L64.25 28.7031C63.8542 29.2656 63.3958 29.7708 62.875 30.2188C62.3646 30.6667 61.8073 31.0469 61.2031 31.3594C60.6094 31.6719 59.9792 31.9062 59.3125 32.0625C58.6562 32.2292 57.9792 32.3125 57.2812 32.3125C56.1042 32.3125 54.9948 32.0938 53.9531 31.6562C52.9219 31.2188 52.0156 30.6094 51.2344 29.8281C50.4635 29.0469 49.8542 28.1198 49.4062 27.0469C48.9583 25.9635 48.7344 24.776 48.7344 23.4844C48.7344 22.1615 48.9583 20.9531 49.4062 19.8594C49.8542 18.7656 50.4635 17.8333 51.2344 17.0625C52.0156 16.2917 52.9219 15.6927 53.9531 15.2656C54.9948 14.8385 56.1042 14.625 57.2812 14.625C57.9792 14.625 58.6615 14.7083 59.3281 14.875C59.9948 15.0417 60.625 15.2812 61.2188 15.5938C61.8229 15.9062 62.3854 16.2917 62.9062 16.75C63.4271 17.1979 63.8854 17.7031 64.2812 18.2656L56.2812 27.9062ZM58.4688 19.1094C58.2708 19.0365 58.0729 18.9896 57.875 18.9688C57.6875 18.9479 57.4896 18.9375 57.2812 18.9375C56.6979 18.9375 56.1458 19.0469 55.625 19.2656C55.1146 19.474 54.6667 19.776 54.2812 20.1719C53.9062 20.5677 53.6094 21.0469 53.3906 21.6094C53.1719 22.1615 53.0625 22.7865 53.0625 23.4844C53.0625 23.6406 53.0677 23.8177 53.0781 24.0156C53.099 24.2135 53.125 24.4167 53.1562 24.625C53.1979 24.8229 53.2448 25.0156 53.2969 25.2031C53.349 25.3906 53.4167 25.5573 53.5 25.7031L58.4688 19.1094ZM71.375 32H66.8906V9.59375H71.375V18.5625H80.3281V9.59375H84.8125V32H80.3281V23.0469H71.375V32ZM104.484 32H103.453L101.797 29.7031C101.391 30.0677 100.958 30.4115 100.5 30.7344C100.052 31.0469 99.5781 31.3229 99.0781 31.5625C98.5781 31.7917 98.0625 31.974 97.5312 32.1094C97.0104 32.2448 96.4792 32.3125 95.9375 32.3125C94.7604 32.3125 93.651 32.1146 92.6094 31.7188C91.5781 31.3229 90.6719 30.75 89.8906 30C89.1198 29.2396 88.5104 28.3125 88.0625 27.2188C87.6146 26.125 87.3906 24.8802 87.3906 23.4844C87.3906 22.1823 87.6146 20.9896 88.0625 19.9062C88.5104 18.8125 89.1198 17.875 89.8906 17.0938C90.6719 16.3125 91.5781 15.7083 92.6094 15.2812C93.651 14.8438 94.7604 14.625 95.9375 14.625C96.4792 14.625 97.0156 14.6927 97.5469 14.8281C98.0781 14.9635 98.5938 15.151 99.0938 15.3906C99.5938 15.6302 100.068 15.9115 100.516 16.2344C100.974 16.5573 101.401 16.9062 101.797 17.2812L103.453 15.2969H104.484V32ZM100.188 23.4844C100.188 22.901 100.073 22.3385 99.8438 21.7969C99.625 21.2448 99.3229 20.7604 98.9375 20.3438C98.5521 19.9167 98.099 19.5781 97.5781 19.3281C97.0677 19.0677 96.5208 18.9375 95.9375 18.9375C95.3542 18.9375 94.8021 19.0365 94.2812 19.2344C93.7708 19.4323 93.3229 19.724 92.9375 20.1094C92.5625 20.4948 92.2656 20.974 92.0469 21.5469C91.8281 22.1094 91.7188 22.7552 91.7188 23.4844C91.7188 24.2135 91.8281 24.8646 92.0469 25.4375C92.2656 26 92.5625 26.474 92.9375 26.8594C93.3229 27.2448 93.7708 27.5365 94.2812 27.7344C94.8021 27.9323 95.3542 28.0312 95.9375 28.0312C96.5208 28.0312 97.0677 27.9062 97.5781 27.6562C98.099 27.3958 98.5521 27.0573 98.9375 26.6406C99.3229 26.2135 99.625 25.7292 99.8438 25.1875C100.073 24.6354 100.188 24.0677 100.188 23.4844ZM122.375 18.5938L119.25 21.7344C119.094 21.2969 118.88 20.9062 118.609 20.5625C118.339 20.2083 118.031 19.9115 117.688 19.6719C117.354 19.4323 116.99 19.25 116.594 19.125C116.198 19 115.792 18.9375 115.375 18.9375C114.792 18.9375 114.24 19.0573 113.719 19.2969C113.208 19.5365 112.76 19.875 112.375 20.3125C112 20.7396 111.703 21.25 111.484 21.8438C111.266 22.4375 111.156 23.0938 111.156 23.8125C111.156 24.3958 111.266 24.9427 111.484 25.4531C111.703 25.9635 112 26.4115 112.375 26.7969C112.76 27.1823 113.208 27.4844 113.719 27.7031C114.24 27.9219 114.792 28.0312 115.375 28.0312C115.792 28.0312 116.193 27.974 116.578 27.8594C116.964 27.7448 117.323 27.5833 117.656 27.375C118 27.1562 118.302 26.8958 118.562 26.5938C118.833 26.2812 119.052 25.9375 119.219 25.5625L122.344 28.7031C121.948 29.2656 121.49 29.7708 120.969 30.2188C120.458 30.6667 119.901 31.0469 119.297 31.3594C118.703 31.6719 118.073 31.9062 117.406 32.0625C116.75 32.2292 116.073 32.3125 115.375 32.3125C114.198 32.3125 113.089 32.0938 112.047 31.6562C111.016 31.2083 110.109 30.599 109.328 29.8281C108.557 29.0573 107.948 28.1562 107.5 27.125C107.052 26.0938 106.828 24.9896 106.828 23.8125C106.828 22.5312 107.052 21.3333 107.5 20.2188C107.948 19.1042 108.557 18.1354 109.328 17.3125C110.109 16.4792 111.016 15.8229 112.047 15.3438C113.089 14.8646 114.198 14.625 115.375 14.625C116.073 14.625 116.755 14.7135 117.422 14.8906C118.099 15.0677 118.74 15.3281 119.344 15.6719C119.958 16.0052 120.521 16.4167 121.031 16.9062C121.552 17.3958 122 17.9583 122.375 18.5938ZM128.766 32H124.469V8.60938H128.766V23.3594L135.125 15.2969H140.031L134.484 22.2656L140.031 32H135.125L131.734 25.9219L128.766 29.8594V32Z" fill="#7F57F1"/>
</svg>
