<svg xmlns="http://www.w3.org/2000/svg" version="1.1" xmlns:xlink="http://www.w3.org/1999/xlink" xmlns:svgjs="http://svgjs.dev/svgjs" width="1500" height="291" viewBox="0 0 1500 291"><g transform="matrix(1,0,0,1,-0.9090909090911055,0.22726438396759363)"><svg viewBox="0 0 396 77" data-background-color="#ffffff" preserveAspectRatio="xMidYMid meet" height="291" width="1500" xmlns="http://www.w3.org/2000/svg" xmlns:xlink="http://www.w3.org/1999/xlink"><g id="tight-bounds" transform="matrix(1,0,0,1,0.24000000000003752,-0.06013524936599879)"><svg viewBox="0 0 395.5199999999999 77.12027049873203" height="77.12027049873203" width="395.5199999999999"><g><svg viewBox="0 0 395.5199999999999 77.12027049873203" height="77.12027049873203" width="395.5199999999999"><g><svg viewBox="0 0 395.5199999999999 77.12027049873203" height="77.12027049873203" width="395.5199999999999"><g><svg viewBox="0 0 395.5199999999999 77.12027049873203" height="77.12027049873203" width="395.5199999999999"><g id="textblocktransform"><svg viewBox="0 0 395.5199999999999 77.12027049873203" height="77.12027049873203" width="395.5199999999999" id="textblock"><g><svg viewBox="0 0 395.5199999999999 77.12027049873203" height="77.12027049873203" width="395.5199999999999"><g transform="matrix(1,0,0,1,0,0)"><svg width="395.5199999999999" viewBox="3.45 -34.25 177.44 34.6" height="77.12027049873203" data-palette-color="#208b3a"><path d="M14.95-20.3L23.55-20.3Q26.2-20.3 27.28-19.45 28.35-18.6 28.35-16.55L28.35-16.55Q28.35-14.85 27.08-14.13 25.8-13.4 23.1-13.4L23.1-13.4 15-13.4 15-8.1 25.85-8.05Q28.65-8.05 29.88-7.23 31.1-6.4 31.1-4.3L31.1-4.3Q31.1-1.9 29.68-0.95 28.25 0 25.35 0L25.35 0 9.15 0Q6.2 0 4.83-1.58 3.45-3.15 3.45-7.15L3.45-7.15 3.45-28.25Q3.45-34.25 9.15-34.25L9.15-34.25 25.35-34.25Q28.25-34.25 29.68-33.35 31.1-32.45 31.1-30.1L31.1-30.1Q31.1-27.9 29.88-27.03 28.65-26.15 25.85-26.15L25.85-26.15 14.95-26.15 14.95-20.3ZM39.75-17.3L46.7-17.3Q48.5-17.3 49.55-16.93 50.6-16.55 51.05-15.7 51.5-14.85 51.5-13.4L51.5-13.4Q51.5-11.55 50.25-10.83 49-10.1 46.25-10.1L46.25-10.1 39.4-10.1Q35.35-10.1 35.35-13.6L35.35-13.6Q35.35-17.3 39.75-17.3L39.75-17.3ZM89.4-28.7L89.4-7.5Q89.4-3.45 87.95-1.73 86.5 0 83.55 0L83.55 0Q80.65 0 79.3-1.58 77.95-3.15 77.95-7.15L77.95-7.15 77.9-12.8 67.7-12.8 67.7-7.5Q67.7-3.4 66.3-1.7 64.9 0 61.85 0L61.85 0Q58.95 0 57.6-1.58 56.25-3.15 56.25-7.15L56.25-7.15 56.1-28.25Q56.1-31.35 57.67-32.8 59.25-34.25 61.85-34.25L61.85-34.25Q64.84-34.25 66.27-33.15 67.7-32.05 67.7-28.7L67.7-28.7 67.7-20.3 77.84-20.3 77.84-28.25Q77.84-30.35 78.62-31.73 79.4-33.1 80.62-33.68 81.84-34.25 83.55-34.25L83.55-34.25Q86.45-34.25 87.92-33.15 89.4-32.05 89.4-28.7L89.4-28.7ZM103.49 0.3L103.49 0.3Q99.54 0.3 96.94-2.93 94.34-6.15 94.34-11.75L94.34-11.75Q94.34-17.45 96.92-20.83 99.49-24.2 103.49-24.2L103.49-24.2Q107.54-24.2 110.99-21.35L110.99-21.35Q112.34-23.85 115.34-23.85L115.34-23.85Q118.04-23.85 119.54-22.68 121.04-21.5 121.04-18.35L121.04-18.35 121.04-5.35Q121.04-2.35 119.79-1.18 118.54 0 115.39 0L115.39 0Q112.09 0 111.04-1.85L111.04-1.85Q107.84 0.3 103.49 0.3ZM110.29-7.2L110.29-16.55Q109.44-18 108.09-18L108.09-18Q106.79-18 105.99-16.1 105.19-14.2 105.19-11.75L105.19-11.75Q105.19-9.45 105.94-7.65 106.69-5.85 108.04-5.85L108.04-5.85Q109.44-5.85 110.29-7.2L110.29-7.2ZM140.54-18.7L140.54-18.7Q140.54-19.85 139.24-19.85L139.24-19.85Q138.29-19.85 137.54-18.8 136.79-17.75 136.39-16.18 135.99-14.6 135.99-12.9L135.99-12.9Q135.99-10.4 137.52-8.85 139.04-7.3 141.64-7.3L141.64-7.3Q144.19-7.3 146.04-7.9L146.04-7.9Q146.79-8.1 147.87-8.65 148.94-9.2 149.39-9.2L149.39-9.2Q150.09-9.2 150.54-8.95 150.99-8.7 151.17-8.35 151.34-8 151.34-7.6L151.34-7.6Q151.34-6.9 150.87-5.9 150.39-4.9 149.39-3.8 148.39-2.7 147.06-1.78 145.74-0.85 143.79-0.25 141.84 0.35 139.69 0.35L139.69 0.35Q133.49 0.35 129.49-2.98 125.49-6.3 125.49-12.1L125.49-12.1Q125.49-15.8 127.32-18.57 129.14-21.35 132.34-22.78 135.54-24.2 139.69-24.2L139.69-24.2Q143.64-24.2 146.22-23.28 148.79-22.35 149.89-20.8 150.99-19.25 150.99-17.1L150.99-17.1Q150.99-16.15 150.62-15.15 150.24-14.15 149.47-13.15 148.69-12.15 147.19-11.53 145.69-10.9 143.69-10.9L143.69-10.9Q142.79-10.9 142.22-11 141.64-11.1 141.02-11.43 140.39-11.75 140.09-12.5 139.79-13.25 139.79-14.4L139.79-14.4Q139.79-15.4 140.17-16.82 140.54-18.25 140.54-18.7ZM168.49-7.1L168.49-7.1 166.69-7.1Q166.69-4.5 165.19-2.25 163.69 0 161.19 0L161.19 0Q158.39 0 157.06-1.58 155.74-3.15 155.74-7.15L155.74-7.15 155.74-27.7Q155.74-29.85 156.44-31.18 157.14-32.5 158.26-33.05 159.39-33.6 161.19-33.7L161.19-33.7Q164.29-33.7 165.34-31.63 166.39-29.55 166.39-24.45L166.39-24.45Q166.39-20.5 165.94-17.5L165.94-17.5Q166.29-16.4 168.19-16.4L168.19-16.4Q169.39-16.4 169.81-16.93 170.24-17.45 170.24-19.05L170.24-19.05Q170.24-21.4 171.46-22.45 172.69-23.5 175.64-23.5L175.64-23.5Q178.74-23.5 179.81-22.38 180.89-21.25 180.89-18.3L180.89-18.3Q180.89-15.2 179.04-13.5 177.19-11.8 174.89-11.8L174.89-11.8Q177.24-11.8 179.06-10.38 180.89-8.95 180.89-6.1L180.89-6.1Q180.89-2.3 179.86-1.15 178.84 0 175.64 0L175.64 0Q172.69 0 171.46-1.07 170.24-2.15 170.24-4.45L170.24-4.45Q170.24-5.6 170.04-6.18 169.84-6.75 169.51-6.93 169.19-7.1 168.49-7.1Z" opacity="1" transform="matrix(1,0,0,1,0,0)" fill="#208b3a" class="wordmark-text-0" data-fill-palette-color="primary" id="text-0"></path></svg></g></svg></g></svg></g></svg></g></svg></g></svg></g><defs></defs></svg><rect width="395.5199999999999" height="77.12027049873203" fill="none" stroke="none" visibility="hidden"></rect></g></svg></g></svg>