<svg xmlns="http://www.w3.org/2000/svg" version="1.1" xmlns:xlink="http://www.w3.org/1999/xlink" xmlns:svgjs="http://svgjs.dev/svgjs" width="1500" height="1500" viewBox="0 0 1500 1500"><rect width="1500" height="1500" fill="#000000"></rect><g transform="matrix(0.6666666666666666,0,0,0.6666666666666666,249.39393939393932,601.5250145459761)"><svg viewBox="0 0 396 118" data-background-color="#ffffff" preserveAspectRatio="xMidYMid meet" height="446" width="1500" xmlns="http://www.w3.org/2000/svg" xmlns:xlink="http://www.w3.org/1999/xlink"><g id="tight-bounds" transform="matrix(1,0,0,1,0.24000000000003752,-0.07607079515190662)"><svg viewBox="0 0 395.5199999999999 118.15214159030381" height="118.15214159030381" width="395.5199999999999"><g><svg viewBox="0 0 395.5199999999999 118.15214159030381" height="118.15214159030381" width="395.5199999999999"><g><svg viewBox="0 0 395.5199999999999 118.15214159030381" height="118.15214159030381" width="395.5199999999999"><g id="textblocktransform"><svg viewBox="0 0 395.5199999999999 118.15214159030381" height="118.15214159030381" width="395.5199999999999" id="textblock"><g><svg viewBox="0 0 395.5199999999999 77.12027049873203" height="77.12027049873203" width="395.5199999999999"><g transform="matrix(1,0,0,1,0,0)"><svg width="395.5199999999999" viewBox="3.45 -34.25 177.44 34.6" height="77.12027049873203" data-palette-color="#208b3a"><path d="M14.95-20.3L23.55-20.3Q26.2-20.3 27.28-19.45 28.35-18.6 28.35-16.55L28.35-16.55Q28.35-14.85 27.08-14.13 25.8-13.4 23.1-13.4L23.1-13.4 15-13.4 15-8.1 25.85-8.05Q28.65-8.05 29.88-7.23 31.1-6.4 31.1-4.3L31.1-4.3Q31.1-1.9 29.68-0.95 28.25 0 25.35 0L25.35 0 9.15 0Q6.2 0 4.83-1.58 3.45-3.15 3.45-7.15L3.45-7.15 3.45-28.25Q3.45-34.25 9.15-34.25L9.15-34.25 25.35-34.25Q28.25-34.25 29.68-33.35 31.1-32.45 31.1-30.1L31.1-30.1Q31.1-27.9 29.88-27.03 28.65-26.15 25.85-26.15L25.85-26.15 14.95-26.15 14.95-20.3ZM39.75-17.3L46.7-17.3Q48.5-17.3 49.55-16.93 50.6-16.55 51.05-15.7 51.5-14.85 51.5-13.4L51.5-13.4Q51.5-11.55 50.25-10.83 49-10.1 46.25-10.1L46.25-10.1 39.4-10.1Q35.35-10.1 35.35-13.6L35.35-13.6Q35.35-17.3 39.75-17.3L39.75-17.3ZM89.4-28.7L89.4-7.5Q89.4-3.45 87.95-1.73 86.5 0 83.55 0L83.55 0Q80.65 0 79.3-1.58 77.95-3.15 77.95-7.15L77.95-7.15 77.9-12.8 67.7-12.8 67.7-7.5Q67.7-3.4 66.3-1.7 64.9 0 61.85 0L61.85 0Q58.95 0 57.6-1.58 56.25-3.15 56.25-7.15L56.25-7.15 56.1-28.25Q56.1-31.35 57.67-32.8 59.25-34.25 61.85-34.25L61.85-34.25Q64.84-34.25 66.27-33.15 67.7-32.05 67.7-28.7L67.7-28.7 67.7-20.3 77.84-20.3 77.84-28.25Q77.84-30.35 78.62-31.73 79.4-33.1 80.62-33.68 81.84-34.25 83.55-34.25L83.55-34.25Q86.45-34.25 87.92-33.15 89.4-32.05 89.4-28.7L89.4-28.7ZM103.49 0.3L103.49 0.3Q99.54 0.3 96.94-2.93 94.34-6.15 94.34-11.75L94.34-11.75Q94.34-17.45 96.92-20.83 99.49-24.2 103.49-24.2L103.49-24.2Q107.54-24.2 110.99-21.35L110.99-21.35Q112.34-23.85 115.34-23.85L115.34-23.85Q118.04-23.85 119.54-22.68 121.04-21.5 121.04-18.35L121.04-18.35 121.04-5.35Q121.04-2.35 119.79-1.18 118.54 0 115.39 0L115.39 0Q112.09 0 111.04-1.85L111.04-1.85Q107.84 0.3 103.49 0.3ZM110.29-7.2L110.29-16.55Q109.44-18 108.09-18L108.09-18Q106.79-18 105.99-16.1 105.19-14.2 105.19-11.75L105.19-11.75Q105.19-9.45 105.94-7.65 106.69-5.85 108.04-5.85L108.04-5.85Q109.44-5.85 110.29-7.2L110.29-7.2ZM140.54-18.7L140.54-18.7Q140.54-19.85 139.24-19.85L139.24-19.85Q138.29-19.85 137.54-18.8 136.79-17.75 136.39-16.18 135.99-14.6 135.99-12.9L135.99-12.9Q135.99-10.4 137.52-8.85 139.04-7.3 141.64-7.3L141.64-7.3Q144.19-7.3 146.04-7.9L146.04-7.9Q146.79-8.1 147.87-8.65 148.94-9.2 149.39-9.2L149.39-9.2Q150.09-9.2 150.54-8.95 150.99-8.7 151.17-8.35 151.34-8 151.34-7.6L151.34-7.6Q151.34-6.9 150.87-5.9 150.39-4.9 149.39-3.8 148.39-2.7 147.06-1.78 145.74-0.85 143.79-0.25 141.84 0.35 139.69 0.35L139.69 0.35Q133.49 0.35 129.49-2.98 125.49-6.3 125.49-12.1L125.49-12.1Q125.49-15.8 127.32-18.57 129.14-21.35 132.34-22.78 135.54-24.2 139.69-24.2L139.69-24.2Q143.64-24.2 146.22-23.28 148.79-22.35 149.89-20.8 150.99-19.25 150.99-17.1L150.99-17.1Q150.99-16.15 150.62-15.15 150.24-14.15 149.47-13.15 148.69-12.15 147.19-11.53 145.69-10.9 143.69-10.9L143.69-10.9Q142.79-10.9 142.22-11 141.64-11.1 141.02-11.43 140.39-11.75 140.09-12.5 139.79-13.25 139.79-14.4L139.79-14.4Q139.79-15.4 140.17-16.82 140.54-18.25 140.54-18.7ZM168.49-7.1L168.49-7.1 166.69-7.1Q166.69-4.5 165.19-2.25 163.69 0 161.19 0L161.19 0Q158.39 0 157.06-1.58 155.74-3.15 155.74-7.15L155.74-7.15 155.74-27.7Q155.74-29.85 156.44-31.18 157.14-32.5 158.26-33.05 159.39-33.6 161.19-33.7L161.19-33.7Q164.29-33.7 165.34-31.63 166.39-29.55 166.39-24.45L166.39-24.45Q166.39-20.5 165.94-17.5L165.94-17.5Q166.29-16.4 168.19-16.4L168.19-16.4Q169.39-16.4 169.81-16.93 170.24-17.45 170.24-19.05L170.24-19.05Q170.24-21.4 171.46-22.45 172.69-23.5 175.64-23.5L175.64-23.5Q178.74-23.5 179.81-22.38 180.89-21.25 180.89-18.3L180.89-18.3Q180.89-15.2 179.04-13.5 177.19-11.8 174.89-11.8L174.89-11.8Q177.24-11.8 179.06-10.38 180.89-8.95 180.89-6.1L180.89-6.1Q180.89-2.3 179.86-1.15 178.84 0 175.64 0L175.64 0Q172.69 0 171.46-1.07 170.24-2.15 170.24-4.45L170.24-4.45Q170.24-5.6 170.04-6.18 169.84-6.75 169.51-6.93 169.19-7.1 168.49-7.1Z" opacity="1" transform="matrix(1,0,0,1,0,0)" fill="#ffffff" class="wordmark-text-0" data-fill-palette-color="primary" id="text-0"></path></svg></g></svg></g><g transform="matrix(1,0,0,1,63.283199999999965,95.32651547699069)"><svg viewBox="0 0 268.9536 22.825626113313124" height="22.825626113313124" width="268.9536"><g transform="matrix(1,0,0,1,0,0)"><svg width="268.9536" viewBox="7.08 -35.06 418.82 35.550000000000004" height="22.825626113313124" data-palette-color="#208b3a"><path d="M29.79-19.73L29.79-34.69 33.94-34.69 33.94 0 29.79 0 29.79-16.06 11.23-16.06 11.23 0 7.08 0 7.08-34.69 11.23-34.69 11.23-19.73 29.79-19.73ZM42.23 0L54.56-34.69 59.27-34.69 71.6 0 67.4 0 63.89-10.08 49.58-10.08 46.07 0 42.23 0ZM62.62-13.72L56.74-30.64 50.83-13.72 62.62-13.72ZM96.89-34.94L96.89-34.94Q101.63-34.94 106.32-33.08L106.32-33.08 105.05-29.64Q100.31-31.27 96.77-31.27L96.77-31.27Q93.84-31.27 91.34-30.11 88.84-28.96 87.19-27.01 85.54-25.07 84.61-22.57 83.69-20.07 83.69-17.33L83.69-17.33Q83.69-14.5 84.68-11.95 85.66-9.4 87.45-7.48 89.23-5.57 91.88-4.44 94.53-3.32 97.68-3.32L97.68-3.32Q101.44-3.32 105.51-4.79L105.51-4.79 106.78-1.71Q101.68 0.49 96.63 0.49L96.63 0.49Q93.5 0.49 90.77-0.42 88.03-1.32 85.99-2.94 83.95-4.57 82.49-6.79 81.03-9.01 80.28-11.68 79.54-14.36 79.54-17.31L79.54-17.31Q79.54-22.31 81.62-26.29 83.71-30.27 87.69-32.6 91.67-34.94 96.89-34.94ZM115.32 0L115.32-34.69 119.47-34.69 119.47 0 115.32 0ZM120.06-17.8L134.76-34.69 139.96-34.69 125.29-18.14 140.89 0 135.54 0 120.06-17.8ZM150.65 0L150.65-34.69 154.8-34.69 154.8 0 150.65 0ZM167.74 0L167.74-34.69 172.99-34.69 191.88-5.66 191.88-34.69 196.03-34.69 196.03 0 190.78 0 171.89-29.08 171.89 0 167.74 0ZM223.59-34.96L223.59-34.96Q229.45-34.96 234.75-32.01L234.75-32.01 233.11-28.91Q231.26-29.88 228.79-30.59 226.33-31.3 223.81-31.3L223.81-31.3Q221.25-31.3 218.87-30.35 216.49-29.39 214.63-27.67 212.78-25.95 211.67-23.33 210.56-20.7 210.56-17.58L210.56-17.58Q210.56-13.45 212.39-10.16 214.22-6.86 217.44-5.03 220.66-3.2 224.64-3.2L224.64-3.2Q229.36-3.2 232.31-6.03L232.31-6.03 232.31-14.89 222.45-14.89 222.45-18.31 236.34-18.31 236.34-4.69Q235.68-3.93 234.81-3.22 233.94-2.51 232.39-1.59 230.84-0.66 228.57-0.09 226.3 0.49 223.67 0.49L223.67 0.49Q220.2 0.49 217.28-0.55 214.36-1.59 212.39-3.32 210.41-5.05 209.04-7.36 207.68-9.67 207.04-12.18 206.41-14.7 206.41-17.31L206.41-17.31Q206.41-20.04 207.1-22.62 207.8-25.2 209.24-27.44 210.68-29.69 212.69-31.36 214.71-33.03 217.51-34 220.32-34.96 223.59-34.96ZM271.59-31.52L264.9-31.52 264.9-19.87Q265.36-19.9 266.51-19.91 267.66-19.92 268.29-19.93 268.93-19.95 270.07-20.03 271.22-20.12 271.92-20.23 272.61-20.34 273.6-20.57 274.59-20.8 275.21-21.11 275.83-21.41 276.53-21.89 277.23-22.36 277.62-22.95 278.01-23.54 278.26-24.35 278.52-25.17 278.52-26.15L278.52-26.15Q278.52-26.88 278.37-27.54 278.23-28.2 277.76-28.96 277.3-29.71 276.57-30.25 275.83-30.79 274.55-31.15 273.27-31.52 271.59-31.52L271.59-31.52ZM264.9-16.65L264.9-16.65 264.9-3.66 271.37-3.66Q272.25-3.66 272.84-3.67 273.44-3.69 274.56-3.82 275.69-3.96 276.48-4.19 277.27-4.42 278.25-4.9 279.23-5.37 279.83-6.03 280.42-6.69 280.84-7.73 281.25-8.76 281.25-10.08L281.25-10.08Q281.25-13.33 278.74-15.16 276.23-16.99 271.98-16.99L271.98-16.99Q271.51-16.99 264.9-16.65ZM260.75 0L260.75-34.69 272.98-34.69Q274.76-34.69 276.24-34.31 277.71-33.94 278.68-33.35 279.64-32.76 280.39-31.96 281.13-31.15 281.52-30.4 281.91-29.64 282.16-28.78 282.4-27.93 282.46-27.38 282.52-26.83 282.52-26.34L282.52-26.34Q282.52-24.22 281.08-22.11 279.64-20 278.03-19.38L278.03-19.38Q281.25-18.8 283.32-16.27 285.38-13.75 285.38-10.52L285.38-10.52Q285.38-9.77 285.25-8.94 285.11-8.11 284.72-7.06 284.33-6.01 283.72-5.05 283.11-4.1 282.06-3.16 281.01-2.22 279.66-1.54 278.3-0.85 276.33-0.43 274.37 0 272.03 0L272.03 0 260.75 0ZM295.51 0L295.51-34.69 299.66-34.69 299.66-3.64 315.24-3.64 315.24 0 295.51 0ZM337.67-35.06L337.67-35.06Q341.11-35.06 344.1-33.85 347.09-32.64 349.28-30.44 351.46-28.25 352.71-24.96 353.95-21.68 353.95-17.75L353.95-17.75Q353.95-12.43 351.84-8.29 349.73-4.15 345.98-1.89 342.24 0.37 337.5 0.37L337.5 0.37Q334.37 0.37 331.52-0.74 328.66-1.86 326.37-3.98 324.07-6.1 322.7-9.53 321.34-12.96 321.34-17.26L321.34-17.26Q321.34-21.29 322.58-24.63 323.83-27.98 326-30.26 328.17-32.54 331.18-33.8 334.18-35.06 337.67-35.06ZM337.45-31.42L337.45-31.42Q335.23-31.42 333.18-30.59 331.13-29.76 329.41-28.16 327.68-26.56 326.65-23.86 325.61-21.17 325.61-17.77L325.61-17.77Q325.61-14.53 326.56-11.78 327.51-9.03 329.15-7.18 330.79-5.32 333.02-4.3 335.25-3.27 337.82-3.27L337.82-3.27Q339.55-3.27 341.22-3.78 342.89-4.3 344.43-5.41 345.97-6.52 347.13-8.13 348.29-9.74 348.99-12.11 349.68-14.48 349.68-17.31L349.68-17.31Q349.68-20.19 348.95-22.58 348.22-24.98 347.01-26.59 345.8-28.2 344.2-29.31 342.6-30.42 340.91-30.92 339.21-31.42 337.45-31.42ZM379.68-34.96L379.68-34.96Q385.54-34.96 390.84-32.01L390.84-32.01 389.21-28.91Q387.35-29.88 384.88-30.59 382.42-31.3 379.9-31.3L379.9-31.3Q377.34-31.3 374.96-30.35 372.58-29.39 370.72-27.67 368.87-25.95 367.76-23.33 366.65-20.7 366.65-17.58L366.65-17.58Q366.65-13.45 368.48-10.16 370.31-6.86 373.53-5.03 376.75-3.2 380.73-3.2L380.73-3.2Q385.45-3.2 388.4-6.03L388.4-6.03 388.4-14.89 378.54-14.89 378.54-18.31 392.43-18.31 392.43-4.69Q391.77-3.93 390.9-3.22 390.04-2.51 388.49-1.59 386.94-0.66 384.66-0.09 382.39 0.49 379.76 0.49L379.76 0.49Q376.29 0.49 373.37-0.55 370.46-1.59 368.48-3.32 366.5-5.05 365.13-7.36 363.77-9.67 363.13-12.18 362.5-14.7 362.5-17.31L362.5-17.31Q362.5-20.04 363.19-22.62 363.89-25.2 365.33-27.44 366.77-29.69 368.78-31.36 370.8-33.03 373.61-34 376.41-34.96 379.68-34.96ZM416.13-35.01L416.13-35.01Q420.14-35.01 424.75-33.62L424.75-33.62 423.41-29.83Q419.01-31.1 415.79-31.1L415.79-31.1Q412.18-31.1 409.67-29.58 407.17-28.05 407.17-25.63L407.17-25.63Q407.17-24.29 407.98-23.24 408.78-22.19 410.1-21.53 411.42-20.87 413.1-20.23 414.79-19.58 416.53-19.04 418.28-18.51 419.97-17.68 421.65-16.85 422.97-15.86 424.29-14.87 425.09-13.28 425.9-11.69 425.9-9.69L425.9-9.69Q425.9-8.3 425.46-6.92 425.02-5.54 423.99-4.19 422.97-2.83 421.45-1.81 419.94-0.78 417.63-0.15 415.33 0.49 412.49 0.49 409.66 0.49 407.28-0.1 404.9-0.68 401.95-1.86L401.95-1.86 403.36-5.88Q409.47-3.61 413.01-3.61L413.01-3.61Q416.72-3.61 419.05-5.1 421.38-6.59 421.38-9.08L421.38-9.08Q421.38-10.74 420.34-11.95 419.31-13.16 417.66-13.9 416.01-14.65 414.01-15.3 412.01-15.94 410.02-16.69 408.03-17.43 406.38-18.41 404.73-19.38 403.69-21.04 402.66-22.71 402.66-24.95L402.66-24.95Q402.66-26.95 403.62-28.78 404.58-30.62 406.29-31.99 408-33.37 410.57-34.19 413.13-35.01 416.13-35.01Z" opacity="1" transform="matrix(1,0,0,1,0,0)" fill="#ffffff" class="slogan-text-1" data-fill-palette-color="secondary" id="text-1"></path></svg></g></svg></g></svg></g></svg></g></svg></g><defs></defs></svg><rect width="395.5199999999999" height="118.15214159030381" fill="none" stroke="none" visibility="hidden"></rect></g></svg></g></svg>